<?xml version="1.0" encoding="utf-8"?>
<!-- Generator: Adobe Illustrator 27.2.0, SVG Export Plug-In . SVG Version: 6.00 Build 0)  -->
<svg version="1.1" id="Layer_2_00000152234207015214888370000004809986689713304967_"
	 xmlns="http://www.w3.org/2000/svg" xmlns:xlink="http://www.w3.org/1999/xlink" x="0px" y="0px" viewBox="0 0 443.1 444.1"
	 style="enable-background:new 0 0 443.1 444.1;" xml:space="preserve">
<style type="text/css">
	.st0{fill:#FFFFFF;}
</style>
<g id="Layer_1-2">
	<path class="st0" d="M221.1,0.1c14-0.5,27.4,1.1,40.7,3.8c6.6,1.3,8.7,4.7,6.3,11.1c-6.2,15.9-12.5,31.7-18.9,47.5
		c-1.6,4-4.6,6.3-9.1,6.2c-13,0-26,0-39,0c-4.4,0-7.3-2.3-8.9-6c-3.8-8.7-7.6-17.4-11.3-26.1c-2.9-6.8-5.7-13.5-8.4-20.4
		c-2.6-6.5-0.2-10.9,6.8-12.2C193.2,1.4,207.2-0.5,221.1,0.1z"/>
	<path class="st0" d="M222.2,375.3c5.5,0,11.1,0,16.6,0c7.4,0,10.5,2.2,13.3,9.1c5.7,13.9,11.5,27.7,17.4,41.5
		c3.8,8.9,2.1,12.7-7.4,14.5c-22.6,4.3-45.3,4.9-68.1,1.9c-4.5-0.6-9.1-1.3-13.5-2.3c-5.5-1.2-7.8-4.9-6-10.2
		c2.4-7,5.2-13.8,7.8-20.6c2.8-7.1,5.6-14.3,8.4-21.4c1-2.5,1.8-5.1,3.2-7.3c2-3.2,5-5.2,9-5.2C209.5,375.3,215.8,375.3,222.2,375.3
		C222.2,375.3,222.2,375.3,222.2,375.3L222.2,375.3z"/>
	<path class="st0" d="M443.1,252.9c-1.7,7.6-3.2,15.2-5.1,22.7c-4,16.1-9.7,31.6-17.2,46.4c-2.3,4.6-5.1,9.1-8.3,13.2
		c-2.5,3.3-5.7,3.4-9,0.9c-3.7-2.7-7.2-5.7-10.6-8.8c-9-8.2-17.8-16.5-26.8-24.7c-4.5-4.1-5.6-8.6-3.5-14.3
		c4.1-11.1,7.8-22.3,11.8-33.5c1.7-4.8,4.8-8.1,10.5-8.4c9.8-0.4,19.6-1.1,29.4-1.7c6-0.4,11.9-0.9,17.9-1.1c2.3-0.1,4.7,0.2,6.8,1
		C442.6,246.1,442.9,249.4,443.1,252.9L443.1,252.9z"/>
	<path class="st0" d="M10.1,200.7c-1.6-0.1-3.4,0-5-0.4c-3.2-0.8-5.5-3.8-5-7.6c0.9-6.6,2.1-13.2,3.5-19.8
		c4.6-21.3,12.9-41.2,23.5-60.2c0.8-1.5,1.9-2.9,3.1-4c3-2.8,5.5-3.2,8.9-0.7c4.9,3.7,9.6,7.8,14.2,11.9c8.1,7.2,16,14.7,24.1,21.9
		c4.4,3.9,5,8.4,3.2,13.6c-4.1,11.6-8.2,23.3-12.4,34.9c-1.8,5.1-5.9,7.4-11.1,7.7c-12.7,0.7-25.3,1.4-38,2.1
		C16.1,200.1,13.1,200.4,10.1,200.7L10.1,200.7z"/>
	<path class="st0" d="M222,318.5c-53.8,0.3-95.3-41.7-95.6-96.1c-0.2-54.8,41.8-96.4,94.2-96.8c53.5-0.4,95.8,42.1,95.7,96.9
		C316.3,275.9,274.6,318.4,222,318.5L222,318.5z"/>
	<path class="st0" d="M17.8,244.1c14,0.4,27.9,0.8,41.8,1.3c5.2,0.2,8.5,3.1,10.3,7.8c4.2,11.5,8.3,23,12.4,34.6
		c1.8,5,0.9,9.5-3.2,13.4C67.6,312,56.3,323,44.9,334c-0.9,0.9-2,1.6-3,2.3c-3.3,2.1-6.8,2-9.2-1c-2.8-3.6-5.4-7.5-7.3-11.5
		c-4.7-10-9.2-20.1-13.1-30.5c-4.8-12.8-8.3-26-10.1-39.5c-0.9-6.2,2.1-9.5,8.4-9.6C12.9,244,15.3,244,17.8,244.1
		C17.8,244.1,17.8,244.1,17.8,244.1L17.8,244.1z"/>
	<path class="st0" d="M291.3,366.2c-0.1-3.5,1.6-6.1,4.1-8c10.1-7.4,20.5-14.6,30.6-22c4.9-3.5,9.6-2.9,14.3,0.1
		c11.6,7.3,23.3,14.6,34.9,21.9c1.9,1.2,3.9,2.2,5.7,3.6c5.7,4.1,6.4,8.7,1.4,13.7c-7.5,7.4-15.1,14.9-23.4,21.3
		c-9.9,7.5-20.5,14.2-31,20.8c-4.6,2.9-9.7,4.8-14.8,6.8c-4.9,2-8.5-0.2-10-5.8c-1.8-6.8-3.4-13.6-5-20.5c-2.2-9.6-4.3-19.3-6.4-29
		C291.5,368.1,291.4,367.2,291.3,366.2L291.3,366.2z"/>
	<path class="st0" d="M151.5,77.3c0.4,4.2-1.7,7.1-4.7,9.3c-10,7.2-20.1,14.3-30.3,21.4c-3.9,2.7-8.1,3.1-12.3,0.5
		c-7.2-4.4-14.4-8.8-21.5-13.2c-6.4-4-12.8-8.1-19.2-12.2c-7.3-4.6-8.3-9.1-2.1-15.1c8.7-8.5,17.8-16.5,27.2-24.2
		c10.4-8.5,22-15.3,34.1-21.2c2.1-1,4.2-2,6.4-2.8c5.1-1.8,9.2,0.2,10.6,5.5c2.1,7.8,3.8,15.7,5.7,23.6c1.7,7.4,3.4,14.7,5.1,22.1
		C150.8,73.1,151.1,75.2,151.5,77.3L151.5,77.3z"/>
	<path class="st0" d="M152.9,366.7c-1.6,8-3.3,16-4.9,24.1c-1.8,8.8-3.6,17.5-5.2,26.3c-1.3,6.7-6.3,9.7-12.5,6.4
		c-10.8-5.7-21.6-11.6-32-18c-12.1-7.4-22.8-16.5-32.7-26.5c-1.2-1.2-2.3-2.5-3.4-3.8c-3.9-5.1-3.5-8.5,1.7-12.5
		c3.7-2.8,7.7-5.4,11.6-7.9c9.5-6.3,19.1-12.4,28.5-18.8c5.2-3.5,10.1-3.2,15.1,0.4c9,6.4,18.2,12.7,27.1,19.2
		C149.8,358.3,153.3,361.3,152.9,366.7L152.9,366.7z"/>
	<path class="st0" d="M421.5,200.1c-12.9-0.5-25.8-0.9-38.7-1.5c-5.4-0.2-9.1-3.8-11.2-9.9c-2.9-8.7-6.1-17.3-9.1-25.9
		c-1-2.9-1.8-5.9-2.8-8.8c-1.1-3.4-0.2-6.4,2.1-8.9c3.2-3.5,6.7-6.9,10.1-10.2c8.8-8.4,17.6-16.8,26.4-25.2c0.4-0.4,0.8-0.8,1.2-1.1
		c4.5-4,8.5-3.8,11.7,1.5c4.2,7,8.2,14.2,11.7,21.6c7.8,16.3,12.8,33.6,16.6,51.2c0.6,2.9,1,5.9,1.4,8.8c0.5,4.4-2.5,8-7,8.1
		c-4.2,0.1-8.3,0-12.5,0C421.5,200,421.5,200,421.5,200.1L421.5,200.1z"/>
	<path class="st0" d="M290.2,76.4c1.1-5.7,2.6-13.2,4.1-20.8c1.8-9.1,3.7-18.2,5.5-27.2c0.2-0.9,0.4-1.9,0.7-2.8
		c1.8-5.7,5.7-7.8,11.1-5.3c7.7,3.6,15.4,7.4,22.7,11.6c16.1,9.3,30.7,20.7,43.8,34c0.8,0.8,1.7,1.7,2.4,2.6
		c4.2,5.2,3.8,8.6-1.5,12.6c-3.9,2.9-8,5.7-12.1,8.4c-9.7,6.4-19.4,12.7-29.1,19.2c-4.1,2.7-8.1,2.9-12.2,0
		c-7.2-5.1-14.5-10.1-21.8-15.2c-3-2.1-6-4.1-8.8-6.4C292.2,84.9,290.1,82.1,290.2,76.4z"/>
</g>
</svg>
