<?xml version="1.0" encoding="UTF-8"?><svg id="Layer_2" xmlns="http://www.w3.org/2000/svg" viewBox="0 0 443.15 444.13"><defs><style>.cls-1{fill:#fff;}</style></defs><g id="Layer_1-2"><path class="cls-1" d="m221.08.12c13.99-.46,27.4,1.11,40.7,3.81,6.62,1.34,8.73,4.74,6.28,11.07-6.16,15.88-12.48,31.69-18.85,47.48-1.6,3.96-4.61,6.26-9.12,6.24-12.99-.03-25.98-.04-38.98,0-4.4,0-7.27-2.26-8.95-6.05-3.84-8.66-7.57-17.37-11.27-26.09-2.86-6.76-5.68-13.53-8.39-20.35-2.57-6.46-.18-10.85,6.75-12.18C193.18,1.36,207.22-.5,221.08.12Z"/><path class="cls-1" d="m222.23,375.29c5.54,0,11.09,0,16.63,0,7.45.02,10.5,2.25,13.31,9.07,5.72,13.86,11.52,27.7,17.45,41.48,3.82,8.88,2.08,12.72-7.41,14.51-22.58,4.26-45.29,4.93-68.08,1.94-4.54-.6-9.08-1.31-13.54-2.29-5.53-1.22-7.79-4.89-5.98-10.22,2.35-6.95,5.16-13.75,7.82-20.59,2.78-7.14,5.6-14.27,8.43-21.38.98-2.47,1.79-5.07,3.19-7.3,2.01-3.21,4.99-5.2,9-5.19,6.4.01,12.79,0,19.19,0,0,0,0-.02,0-.03Z"/><path class="cls-1" d="m443.15,252.85c-1.68,7.57-3.22,15.18-5.09,22.71-3.99,16.09-9.73,31.57-17.22,46.35-2.34,4.62-5.12,9.1-8.28,13.19-2.55,3.31-5.66,3.44-9.05.94-3.67-2.72-7.18-5.7-10.56-8.77-8.99-8.17-17.83-16.52-26.84-24.66-4.51-4.07-5.64-8.59-3.52-14.34,4.09-11.1,7.78-22.34,11.82-33.46,1.74-4.8,4.82-8.11,10.51-8.35,9.79-.42,19.57-1.13,29.35-1.74,5.95-.37,11.9-.89,17.86-1.07,2.28-.07,4.73.21,6.83,1.03,3.59,1.4,3.96,4.67,4.18,8.19Z"/><path class="cls-1" d="m10.07,200.67c-1.65-.13-3.4-.04-5.04-.43-3.22-.78-5.47-3.75-4.97-7.59.86-6.64,2.09-13.24,3.52-19.79,4.65-21.29,12.85-41.22,23.45-60.21.82-1.46,1.89-2.86,3.12-4,3.03-2.81,5.55-3.24,8.9-.73,4.93,3.69,9.59,7.76,14.19,11.87,8.1,7.24,15.99,14.72,24.1,21.94,4.37,3.89,5.01,8.43,3.19,13.61-4.09,11.65-8.17,23.3-12.39,34.9-1.85,5.08-5.9,7.38-11.13,7.67-12.66.71-25.32,1.35-37.97,2.05-2.98.16-5.94.46-8.97.7Z"/><path class="cls-1" d="m222.03,318.45c-53.77.34-95.35-41.67-95.6-96.05-.25-54.8,41.8-96.38,94.23-96.8,53.48-.43,95.8,42.13,95.7,96.88-.1,53.38-41.8,95.94-94.34,95.97Z"/><path class="cls-1" d="m17.79,244.09c13.95.43,27.9.82,41.85,1.32,5.16.19,8.54,3.12,10.26,7.83,4.2,11.51,8.33,23.04,12.38,34.6,1.77,5.05.93,9.49-3.19,13.38-11.47,10.82-22.78,21.82-34.18,32.73-.92.88-1.98,1.63-3.05,2.32-3.28,2.11-6.8,2-9.19-1.05-2.8-3.58-5.4-7.45-7.31-11.55-4.66-10.03-9.25-20.12-13.15-30.46-4.82-12.77-8.26-25.99-10.14-39.54-.86-6.2,2.14-9.54,8.35-9.64,2.45-.04,4.9,0,7.36,0,0,.03,0,.05,0,.08Z"/><path class="cls-1" d="m291.3,366.22c-.14-3.46,1.61-6.1,4.14-7.96,10.14-7.42,20.45-14.6,30.63-21.96,4.86-3.51,9.56-2.85,14.27.09,11.65,7.28,23.28,14.61,34.92,21.91,1.89,1.19,3.88,2.25,5.68,3.57,5.66,4.13,6.36,8.74,1.35,13.66-7.52,7.38-15.06,14.88-23.4,21.26-9.87,7.55-20.47,14.19-31.02,20.79-4.56,2.85-9.72,4.83-14.76,6.82-4.92,1.95-8.52-.24-9.98-5.83-1.78-6.81-3.44-13.64-5.01-20.5-2.21-9.65-4.3-19.34-6.42-29.01-.2-.93-.27-1.9-.4-2.85Z"/><path class="cls-1" d="m151.48,77.27c.44,4.19-1.68,7.13-4.74,9.33-10.03,7.22-20.14,14.34-30.29,21.39-3.92,2.73-8.14,3.07-12.34.5-7.19-4.39-14.38-8.78-21.52-13.23-6.42-4.01-12.76-8.14-19.17-12.16-7.29-4.57-8.32-9.11-2.14-15.13,8.67-8.45,17.8-16.47,27.16-24.15,10.4-8.54,22.01-15.33,34.12-21.21,2.1-1.02,4.25-1.99,6.45-2.77,5.14-1.82,9.22.16,10.61,5.45,2.06,7.82,3.83,15.72,5.67,23.6,1.72,7.36,3.4,14.74,5.05,22.12.46,2.07.76,4.17,1.13,6.26Z"/><path class="cls-1" d="m152.9,366.72c-1.64,8.02-3.31,16.04-4.93,24.07-1.77,8.77-3.58,17.53-5.24,26.31-1.27,6.74-6.32,9.7-12.52,6.44-10.82-5.69-21.55-11.59-31.98-17.95-12.05-7.35-22.77-16.49-32.68-26.55-1.2-1.21-2.33-2.5-3.37-3.84-3.94-5.06-3.55-8.52,1.67-12.45,3.74-2.81,7.69-5.35,11.6-7.93,9.51-6.28,19.1-12.42,28.54-18.79,5.23-3.53,10.09-3.16,15.06.37,9.02,6.42,18.15,12.7,27.09,19.23,3.63,2.65,7.18,5.65,6.77,11.09Z"/><path class="cls-1" d="m421.53,200.09c-12.89-.49-25.78-.95-38.67-1.49-5.37-.22-9.12-3.83-11.16-9.92-2.9-8.68-6.07-17.28-9.06-25.93-1.01-2.91-1.8-5.9-2.76-8.84-1.11-3.4-.19-6.42,2.07-8.89,3.22-3.53,6.67-6.87,10.13-10.19,8.77-8.42,17.59-16.77,26.39-25.15.39-.37.76-.75,1.16-1.1,4.53-4.04,8.52-3.78,11.68,1.49,4.22,7.02,8.17,14.24,11.7,21.64,7.8,16.33,12.76,33.62,16.62,51.24.64,2.91,1.05,5.88,1.39,8.84.52,4.42-2.53,8-7.01,8.15-4.16.14-8.32.03-12.48.03,0,.04,0,.08,0,.13Z"/><path class="cls-1" d="m290.18,76.38c1.14-5.73,2.63-13.25,4.14-20.77,1.83-9.09,3.7-18.16,5.55-27.25.19-.94.37-1.89.66-2.8,1.79-5.71,5.68-7.81,11.11-5.28,7.71,3.59,15.37,7.37,22.73,11.62,16.12,9.33,30.73,20.7,43.75,34.04.82.84,1.66,1.67,2.39,2.58,4.17,5.16,3.82,8.61-1.54,12.59-3.93,2.92-8,5.67-12.09,8.38-9.68,6.41-19.44,12.71-29.11,19.15-4.12,2.74-8.08,2.91-12.17.04-7.24-5.08-14.52-10.1-21.76-15.17-2.97-2.08-5.96-4.13-8.81-6.36-2.87-2.24-4.96-5.01-4.85-10.77Z"/></g></svg>