<svg width="48" height="48" xmlns="http://www.w3.org/2000/svg">

 <g>
  <title>Layer 1</title>
  <path id="svg_1" d="m24,43.8q-4.35,0 -7.45,-3q-3.1,-3 -3.1,-7.4l0,-21.95q0,-3.1 2.2,-5.275q2.2,-2.175 5.3,-2.175q3.1,0 5.275,2.175q2.175,2.175 2.175,5.275l0,20.05q0,1.85 -1.275,3.15q-1.275,1.3 -3.125,1.3t-3.125,-1.375q-1.275,-1.375 -1.275,-3.275l0,-19.1q0,-0.35 0.25,-0.575q0.25,-0.225 0.55,-0.225q0.35,0 0.6,0.225t0.25,0.575l0,19.2q0,1.25 0.8,2.075q0.8,0.825 1.95,0.825t1.95,-0.825q0.8,-0.825 0.8,-1.975l0,-20.05q0,-2.4 -1.7,-4.1q-1.7,-1.7 -4.1,-1.7q-2.45,0 -4.15,1.7q-1.7,1.7 -1.7,4.1l0,22.05q0,3.65 2.625,6.15q2.625,2.5 6.275,2.5q3.7,0 6.3,-2.525q2.6,-2.525 2.6,-6.225l0,-21.2q0,-0.35 0.225,-0.575q0.225,-0.225 0.575,-0.225t0.6,0.225q0.25,0.225 0.25,0.575l0,21.2q0,4.35 -3.1,7.375q-3.1,3.025 -7.45,3.025z"/>
 </g>
</svg>